<svg xmlns="http://www.w3.org/2000/svg" viewBox="0 0 241 38"><defs><style>.cls-1{fill:none;}.cls-2{fill:#1b535c;}</style></defs><g id="Layer_2" data-name="Layer 2"><g id="Layer_1-2" data-name="Layer 1"><rect class="cls-1" x="153" width="38" height="38"/><path class="cls-2" d="M159.68,16.58l8.67-1.33,3.72-8,3.72,8,8.68,1.34-6.29,6.51L179.61,32l-7.54-4.19L164.53,32,166,23.1Z"/><path class="cls-2" d="M161.46,36.24h0l2-12.42L154.91,15l11.86-1.81,5.3-11.3,5.3,11.3L189.24,15l-8.59,8.8,2,12.42-10.61-5.86-10.61,5.86Zm10.61-9.13h0l6.83,3.75-1.3-8L183.29,17l-7.85-1.2-3.37-7.16-3.36,7.16L160.86,17l5.69,5.84-1.3,8,6.82-3.75Z"/><rect class="cls-1" x="203" width="38" height="38"/><path class="cls-2" d="M209.68,16.58l8.67-1.33,3.72-8,3.72,8,8.68,1.34-6.29,6.51L229.61,32l-7.54-4.19L214.53,32,216,23.1Z"/><path class="cls-2" d="M211.46,36.24h0l2-12.42L204.91,15l11.86-1.81,5.3-11.3,5.3,11.3L239.24,15l-8.59,8.8,2,12.42-10.61-5.86-10.61,5.86Zm10.61-9.13h0l6.83,3.75-1.3-8L233.29,17l-7.85-1.2-3.37-7.16-3.36,7.16L210.86,17l5.69,5.84-1.3,8,6.82-3.75Z"/><rect class="cls-1" x="102" width="38" height="38"/><path class="cls-2" d="M108.68,16.58l8.67-1.33,3.72-8,3.72,8,8.68,1.34-6.29,6.51L128.61,32l-7.54-4.19L113.53,32,115,23.1Z"/><path class="cls-2" d="M110.46,36.24h0l2-12.42L103.91,15l11.86-1.81,5.3-11.3,5.3,11.3L138.24,15l-8.59,8.8,2,12.42-10.61-5.86-10.61,5.86Zm10.61-9.13h0l6.83,3.75-1.3-8L132.29,17l-7.85-1.2-3.37-7.16-3.36,7.16L109.86,17l5.69,5.84-1.3,8,6.82-3.75Z"/><rect class="cls-1" x="51" width="38" height="38"/><path class="cls-2" d="M57.68,16.58l8.67-1.33,3.72-8,3.72,8,8.68,1.34L76.18,23.1,77.61,32l-7.54-4.19L62.53,32,64,23.1Z"/><path class="cls-2" d="M59.46,36.24h0l2-12.42L52.91,15l11.86-1.81,5.3-11.3,5.3,11.3L87.24,15l-8.59,8.8,2,12.42L70.07,30.38,59.46,36.24Zm10.61-9.13h0l6.83,3.75-1.3-8L81.29,17l-7.85-1.2L70.07,8.65l-3.36,7.16L58.86,17l5.69,5.84-1.3,8,6.82-3.75Z"/><rect class="cls-1" width="38" height="38"/><path class="cls-2" d="M6.68,16.58l8.67-1.33,3.72-8,3.72,8,8.68,1.34L25.18,23.1,26.61,32l-7.54-4.19L11.53,32,13,23.1Z"/><path class="cls-2" d="M8.46,36.24h0l2-12.42L1.91,15l11.86-1.81,5.3-11.3,5.3,11.3L36.24,15l-8.59,8.8,2,12.42L19.07,30.37,8.46,36.24Zm10.61-9.13h0l6.83,3.75-1.3-8L30.29,17l-7.85-1.2L19.07,8.65l-3.36,7.16L7.86,17l5.69,5.84-1.3,8,6.82-3.75Z"/></g></g></svg>