<svg id="MACH_logo" data-name="MACH logo" xmlns="http://www.w3.org/2000/svg" width="164" height="109.366" viewBox="0 0 164 109.366">
  <g id="Group_415" data-name="Group 415" transform="translate(0.007 25.957)">
    <g id="Group_375" data-name="Group 375" transform="translate(0)">
      <g id="Group_374" data-name="Group 374">
        <path id="Path_456" data-name="Path 456" d="M217.355,247.761h11.092l13.766-19.467,5.261,7.76q.348.493.713,1.022l1.88,3.038-14.649.031-5.294,7.62,36.377,0-18.327-26.525a8.956,8.956,0,0,0-2.346-2.345,6.758,6.758,0,0,0-6.993.065,10.161,10.161,0,0,0-2.323,2.28Z" transform="translate(-172.451 -217.948)" fill="#fff"/>
        <path id="Path_457" data-name="Path 457" d="M352.124,240.282H329.947a10.721,10.721,0,0,1-3.378-.514,8.354,8.354,0,0,1-2.707-1.451,6.483,6.483,0,0,1-1.775-2.256,6.729,6.729,0,0,1-.627-2.926,6.657,6.657,0,0,1,.649-2.947,6.982,6.982,0,0,1,1.775-2.3,8.2,8.2,0,0,1,2.684-1.5,10.319,10.319,0,0,1,3.378-.536H344.5l5.76-7.772h-20.31a22.281,22.281,0,0,0-6.972,1.05,16.446,16.446,0,0,0-5.521,2.993,14.035,14.035,0,0,0-3.638,4.645,13.4,13.4,0,0,0-1.32,5.963,13.971,13.971,0,0,0,1.32,6.052,14.708,14.708,0,0,0,3.638,4.824,17.112,17.112,0,0,0,5.521,3.194,20.318,20.318,0,0,0,6.972,1.161h31.184v-7.682Z" transform="translate(-224.118 -218.022)" fill="#fff"/>
        <path id="Path_458" data-name="Path 458" d="M425.99,218.084v11.345H408.223V218.084h-9.007V238.9h9.007v-2.678H425.99v11.746H435v-29.88Z" transform="translate(-271.21 -218.022)" fill="#fff"/>
        <path id="Path_459" data-name="Path 459" d="M169.926,237.452l-4.338-15.262a5.63,5.63,0,0,0-2-3.1,5.146,5.146,0,0,0-3.1-1,5.01,5.01,0,0,0-3.009.87,6.91,6.91,0,0,0-2,2.3l-4.7,8.481q-.967,1.74-1.691,3.035t-1.273,2.344q-.55,1.048-.967,1.874t-.768,1.629l-.813-1.651q-.417-.848-.966-1.875t-1.274-2.344q-.725-1.315-1.691-3.057l-4.7-8.436a6.568,6.568,0,0,0-2-2.321,5.032,5.032,0,0,0-2.964-.848,5.24,5.24,0,0,0-3.118,1,5.576,5.576,0,0,0-2.021,3.1l-7.455,25.755h8.9l2.636-9.91q.659-2.544,1.141-4.485t.835-3.727l.725,1.563q.372.8.878,1.763t1.12,2.165q.615,1.2,1.406,2.722l3.953,7.544a8.052,8.052,0,0,0,1.163,1.763,5.21,5.21,0,0,0,1.209,1,3.765,3.765,0,0,0,1.316.469,10.654,10.654,0,0,0,3.074,0,3.778,3.778,0,0,0,1.318-.469,5.238,5.238,0,0,0,1.209-1,8.085,8.085,0,0,0,1.163-1.763l3.952-7.5q1.494-2.9,2.416-4.8t1.669-3.46l4.458,16.344Z" transform="translate(-119.088 -218.022)" fill="#fff"/>
      </g>
    </g>
    <g id="Group_376" data-name="Group 376" transform="translate(0.319 72.387)">
      <path id="Path_460" data-name="Path 460" d="M130.531,387.242v-7.317c0-.652-.3-.979-1.069-.979s-1.069.326-1.069.979v7.317h-3.1v-7.317c0-.652-.3-.979-1.069-.979s-1.069.326-1.069.979v7.317h-3.371V376.5h3.371v1.235h.11a2.555,2.555,0,0,1,2.495-1.375,2.309,2.309,0,0,1,2.467,1.468h.11a2.685,2.685,0,0,1,2.6-1.468c2.083,0,2.686,1.049,2.686,2.657v8.226Z" transform="translate(-119.787 -376.36)" fill="#fff"/>
    </g>
    <g id="Group_377" data-name="Group 377" transform="translate(15.753 72.387)">
      <path id="Path_461" data-name="Path 461" d="M158.468,387.242v-.979h-.11a2.515,2.515,0,0,1-2.3,1.118c-1.754,0-2.494-.746-2.494-2.213v-2.494c0-1.468.74-2.214,2.494-2.214a2.515,2.515,0,0,1,2.3,1.119h.11v-1.445c0-1.025-.548-1.305-1.7-1.305a6.015,6.015,0,0,0-3.015.746h-.11v-2.54a12.048,12.048,0,0,1,4.084-.676c2.33,0,4.084.746,4.084,2.936v7.946Zm0-3.892c0-.559-.466-.815-1.069-.815-.631,0-1.014.256-1.014.815v1.1c0,.559.383.792,1.014.792.6,0,1.069-.233,1.069-.792Z" transform="translate(-153.562 -376.36)" fill="#fff"/>
    </g>
    <g id="Group_378" data-name="Group 378" transform="translate(25.621 72.387)">
      <path id="Path_462" data-name="Path 462" d="M179.048,387.382c-2.8,0-3.892-.955-3.892-3.332v-4.358c0-2.377,1.1-3.332,3.892-3.332a8.714,8.714,0,0,1,2.933.513v2.913h-.11a2.774,2.774,0,0,0-2-.769c-1.041,0-1.453.4-1.453,1.141v3.426c0,.746.411,1.141,1.453,1.141a2.772,2.772,0,0,0,2-.769h.11v2.913A8.715,8.715,0,0,1,179.048,387.382Z" transform="translate(-175.156 -376.36)" fill="#fff"/>
    </g>
    <g id="Group_379" data-name="Group 379" transform="translate(33.844 67.121)">
      <path id="Path_463" data-name="Path 463" d="M198.634,380.984v-7.317c0-.653-.3-.979-1.069-.979s-1.069.326-1.069.979v7.317h-3.344V364.835H196.5v6.618h.137a2.645,2.645,0,0,1,2.521-1.352c2.083,0,2.713,1.049,2.713,2.68v8.2Z" transform="translate(-193.152 -364.835)" fill="#fff"/>
    </g>
    <g id="Group_380" data-name="Group 380" transform="translate(44.178 72.387)">
      <path id="Path_464" data-name="Path 464" d="M218.947,382.722v.792c0,1.026.6,1.305,1.7,1.305a6.6,6.6,0,0,0,2.878-.653h.11v2.68a10.461,10.461,0,0,1-3.426.536c-3.042,0-4.44-1.095-4.44-3.7v-4.288c0-2.353,1.288-3.029,3.974-3.029h.493c2.467,0,3.673.769,3.673,3.029v3.333Zm2.138-3.076c0-.653-.247-.979-1.069-.979-.795,0-1.068.327-1.068.979v1h2.138Z" transform="translate(-215.767 -376.36)" fill="#fff"/>
    </g>
    <g id="Group_381" data-name="Group 381" transform="translate(52.895 72.527)">
      <path id="Path_465" data-name="Path 465" d="M241.585,387.409,240.3,384.8a8.346,8.346,0,0,1-.439-1.119H239.8s-.192.583-.439,1.119l-1.206,2.61h-3.317l3.317-5.756-2.851-4.987h3.646l.85,1.981a5.859,5.859,0,0,1,.356.978h.054a7.264,7.264,0,0,1,.356-.978l.768-1.981h3.234l-2.713,4.824,3.426,5.919Z" transform="translate(-234.843 -376.666)" fill="#fff"/>
    </g>
    <g id="Group_382" data-name="Group 382" transform="translate(64.463 67.121)">
      <path id="Path_466" data-name="Path 466" d="M265.64,380.984v-7.317c0-.653-.3-.979-1.069-.979s-1.069.326-1.069.979v7.317h-3.344V364.835H263.5v6.618h.137a2.646,2.646,0,0,1,2.521-1.352c2.084,0,2.714,1.049,2.714,2.68v8.2Z" transform="translate(-260.158 -364.835)" fill="#fff"/>
    </g>
    <g id="Group_383" data-name="Group 383" transform="translate(74.633 67.703)">
      <path id="Path_467" data-name="Path 467" d="M284.442,369.559a1.747,1.747,0,1,1,2.028-1.724A1.875,1.875,0,0,1,284.442,369.559Zm-1.59,12.117V370.934H286v10.743Z" transform="translate(-282.414 -366.11)" fill="#fff"/>
    </g>
    <g id="Group_384" data-name="Group 384" transform="translate(80.197 67.121)">
      <path id="Path_468" data-name="Path 468" d="M300.511,381.123a2.526,2.526,0,0,1-2.467-1.281h-.109v1.142h-3.344V364.835h3.344v6.548h.137a2.522,2.522,0,0,1,2.439-1.282c2.028,0,2.8,1.049,2.8,2.657v5.709C303.307,380.074,302.54,381.123,300.511,381.123Zm-.438-7.457c0-.653-.3-.979-1.069-.979s-1.069.326-1.069.979v3.915c0,.653.3.979,1.069.979s1.069-.326,1.069-.979Z" transform="translate(-294.591 -364.835)" fill="#fff"/>
    </g>
    <g id="Group_385" data-name="Group 385" transform="translate(90.285 67.703)">
      <path id="Path_469" data-name="Path 469" d="M318.7,369.559a1.747,1.747,0,1,1,2.028-1.724A1.875,1.875,0,0,1,318.7,369.559Zm-1.59,12.117V370.934h3.152v10.743Z" transform="translate(-316.668 -366.11)" fill="#fff"/>
    </g>
    <g id="Group_386" data-name="Group 386" transform="translate(95.191 69.708)">
      <path id="Path_470" data-name="Path 470" d="M330.8,384.2c-2.275,0-2.741-1.375-2.741-2.61v-5.616H327.4v-2.656h.658V370.5h3.289v2.819H332.8v2.656H331.35v5.033c0,.513.274.583.823.583h.63v2.447A10.3,10.3,0,0,1,330.8,384.2Z" transform="translate(-327.403 -370.496)" fill="#fff"/>
    </g>
    <g id="Group_387" data-name="Group 387" transform="translate(101.468 67.703)">
      <path id="Path_471" data-name="Path 471" d="M343.169,369.559a1.747,1.747,0,1,1,2.028-1.724A1.875,1.875,0,0,1,343.169,369.559Zm-1.59,12.117V370.934h3.153v10.743Z" transform="translate(-341.141 -366.11)" fill="#fff"/>
    </g>
    <g id="Group_388" data-name="Group 388" transform="translate(106.868 72.387)">
      <path id="Path_472" data-name="Path 472" d="M357.646,387.382h-.932c-2.632,0-3.755-.955-3.755-3.192v-4.637c0-2.214,1.124-3.193,3.755-3.193h.932c2.576,0,3.755.979,3.755,3.193v4.637C361.4,386.426,360.222,387.382,357.646,387.382Zm.6-7.48c0-.653-.3-.978-1.069-.978s-1.069.326-1.069.978v3.938c0,.653.3.979,1.069.979s1.069-.326,1.069-.979Z" transform="translate(-352.959 -376.36)" fill="#fff"/>
    </g>
    <g id="Group_389" data-name="Group 389" transform="translate(116.983 72.387)">
      <path id="Path_473" data-name="Path 473" d="M380.575,387.242v-7.317c0-.652-.3-.979-1.069-.979s-1.069.326-1.069.979v7.317h-3.344V376.5h3.344v1.212h.137a2.646,2.646,0,0,1,2.521-1.352c2.083,0,2.714,1.049,2.714,2.68v8.2Z" transform="translate(-375.093 -376.36)" fill="#fff"/>
    </g>
    <g id="Group_390" data-name="Group 390" transform="translate(126.824 79.96)">
      <path id="Path_474" data-name="Path 474" d="M398.658,396.382a1.747,1.747,0,1,1,2.029-1.724A1.875,1.875,0,0,1,398.658,396.382Z" transform="translate(-396.63 -392.933)" fill="#fff"/>
    </g>
    <g id="Group_391" data-name="Group 391" transform="translate(131.951 72.387)">
      <path id="Path_475" data-name="Path 475" d="M411.741,387.382c-2.8,0-3.892-.955-3.892-3.332v-4.358c0-2.377,1.1-3.332,3.892-3.332a8.711,8.711,0,0,1,2.933.513v2.913h-.11a2.775,2.775,0,0,0-2-.769c-1.041,0-1.453.4-1.453,1.141v3.426c0,.746.411,1.141,1.453,1.141a2.773,2.773,0,0,0,2-.769h.11v2.913A8.712,8.712,0,0,1,411.741,387.382Z" transform="translate(-407.849 -376.36)" fill="#fff"/>
    </g>
    <g id="Group_392" data-name="Group 392" transform="translate(140.009 72.387)">
      <path id="Path_476" data-name="Path 476" d="M430.171,387.382h-.932c-2.632,0-3.755-.955-3.755-3.192v-4.637c0-2.214,1.124-3.193,3.755-3.193h.932c2.577,0,3.755.979,3.755,3.193v4.637C433.926,386.426,432.748,387.382,430.171,387.382Zm.6-7.48c0-.653-.3-.978-1.068-.978s-1.069.326-1.069.978v3.938c0,.653.3.979,1.069.979s1.068-.326,1.068-.979Z" transform="translate(-425.484 -376.36)" fill="#fff"/>
    </g>
    <g id="Group_393" data-name="Group 393" transform="translate(150.125 72.387)">
      <path id="Path_477" data-name="Path 477" d="M458.366,387.242v-7.317c0-.652-.3-.979-1.069-.979s-1.069.326-1.069.979v7.317h-3.1v-7.317c0-.652-.3-.979-1.069-.979s-1.069.326-1.069.979v7.317h-3.371V376.5h3.371v1.235h.11a2.555,2.555,0,0,1,2.494-1.375,2.31,2.31,0,0,1,2.467,1.468h.11a2.684,2.684,0,0,1,2.6-1.468c2.083,0,2.686,1.049,2.686,2.657v8.226Z" transform="translate(-447.621 -376.36)" fill="#fff"/>
    </g>
    <g id="Group_394" data-name="Group 394" transform="translate(0.281 52.358)">
      <path id="Path_478" data-name="Path 478" d="M123.62,343.509l-2.307-6.019c-.221-.569-.427-1.312-.427-1.312h-.032l.016,7.331H119.7V332.528h1.043l2.275,5.988c.221.584.442,1.311.442,1.311h.032v-7.3h1.185v10.981Z" transform="translate(-119.702 -332.528)" fill="#fff"/>
    </g>
    <g id="Group_395" data-name="Group 395" transform="translate(6.585 52.358)">
      <path id="Path_479" data-name="Path 479" d="M133.5,343.509V332.528h3.476V333.7h-2.212v3.349H136.9v1.169h-2.133v4.124h2.259v1.169Z" transform="translate(-133.499 -332.528)" fill="#fff"/>
    </g>
    <g id="Group_396" data-name="Group 396" transform="translate(10.929 52.263)">
      <path id="Path_480" data-name="Path 480" d="M145.218,343.49c-1.3,0-2.212-.536-2.212-1.943v-7.284c0-1.406.916-1.943,2.212-1.943a3.654,3.654,0,0,1,1.469.3v1.485h-.063a1.418,1.418,0,0,0-1.153-.568c-.632,0-1.2.237-1.2.964v6.81c0,.727.569.964,1.2.964a1.417,1.417,0,0,0,1.153-.568h.063v1.485A3.653,3.653,0,0,1,145.218,343.49Z" transform="translate(-143.006 -332.32)" fill="#fff"/>
    </g>
    <g id="Group_397" data-name="Group 397" transform="translate(18.181 52.358)">
      <path id="Path_481" data-name="Path 481" d="M161.151,343.509h-2.275V332.528h2.086a1.708,1.708,0,0,1,1.928,1.927v1.817c0,.79-.3,1.391-1.169,1.454v.063c1.043.032,1.359.584,1.359,1.548v2.244A1.708,1.708,0,0,1,161.151,343.509Zm.506-9.022c0-.505-.205-.79-.727-.79h-.79v3.555h.79c.505,0,.727-.284.727-.774Zm.158,4.645c0-.505-.206-.774-.727-.774h-.948v3.981h.948c.521,0,.727-.3.727-.79Z" transform="translate(-158.876 -332.528)" fill="#fff"/>
    </g>
    <g id="Group_398" data-name="Group 398" transform="translate(23.19 53.021)">
      <path id="Path_482" data-name="Path 482" d="M170.706,335.7a.863.863,0,0,1-.869-.853.877.877,0,0,1,.869-.869.867.867,0,0,1,.869.869A.853.853,0,0,1,170.706,335.7Zm-.6,8.595v-7.315h1.169V344.3Z" transform="translate(-169.837 -333.98)" fill="#fff"/>
    </g>
    <g id="Group_399" data-name="Group 399" transform="translate(25.892 55.929)">
      <path id="Path_483" data-name="Path 483" d="M178.214,341.922a.731.731,0,0,0-.521-.237.664.664,0,0,0-.759.758v5.309h-1.185v-7.315h1.137v.743h.064a.938.938,0,0,1,.932-.838.678.678,0,0,1,.395.111v1.47Z" transform="translate(-175.749 -340.342)" fill="#fff"/>
    </g>
    <g id="Group_400" data-name="Group 400" transform="translate(29.131 55.929)">
      <path id="Path_484" data-name="Path 484" d="M188,347.752v-5.435c0-.489-.127-.837-.7-.837s-.7.348-.7.837v5.435h-1.169v-5.467c0-.506-.158-.806-.711-.806s-.7.3-.7.806v5.467h-1.2v-7.315h1.185v.743h.063a1.32,1.32,0,0,1,1.248-.838,1.083,1.083,0,0,1,1.2.932h.063a1.31,1.31,0,0,1,1.311-.932c1.106,0,1.3.774,1.3,1.722v5.688Z" transform="translate(-182.838 -340.342)" fill="#fff"/>
    </g>
    <g id="Group_401" data-name="Group 401" transform="translate(36.43 53.021)">
      <path id="Path_485" data-name="Path 485" d="M199.68,335.7a.863.863,0,0,1-.869-.853.877.877,0,0,1,.869-.869.867.867,0,0,1,.869.869A.853.853,0,0,1,199.68,335.7Zm-.6,8.595v-7.315h1.169V344.3Z" transform="translate(-198.811 -333.98)" fill="#fff"/>
    </g>
    <g id="Group_402" data-name="Group 402" transform="translate(39.132 55.929)">
      <path id="Path_486" data-name="Path 486" d="M207.394,347.752v-5.467c0-.521-.174-.869-.743-.869-.553,0-.727.348-.727.869v5.467h-1.2v-7.315h1.185v.711h.063a1.391,1.391,0,0,1,1.28-.806c1.122,0,1.343.806,1.343,1.77v5.64Z" transform="translate(-204.724 -340.342)" fill="#fff"/>
    </g>
    <g id="Group_403" data-name="Group 403" transform="translate(43.919 55.929)">
      <path id="Path_487" data-name="Path 487" d="M217.143,351.26a2.778,2.778,0,0,1-1.943-.806l.537-1.106h.063a1.653,1.653,0,0,0,1.264.838c.616,0,.885-.4.885-1v-2.054h-.063a1.158,1.158,0,0,1-1.2.711c-1.074,0-1.406-.79-1.406-1.737V342.08c0-.948.332-1.738,1.391-1.738a1.236,1.236,0,0,1,1.216.711h.063v-.616h1.2v8.8A1.774,1.774,0,0,1,217.143,351.26Zm.806-8.753c0-.553-.095-1.075-.743-1.075-.537,0-.743.364-.743.854V345.9c0,.49.206.869.743.869.521,0,.743-.379.743-.869Z" transform="translate(-215.2 -340.342)" fill="#fff"/>
    </g>
    <g id="Group_404" data-name="Group 404" transform="translate(48.928 52.358)">
      <path id="Path_488" data-name="Path 488" d="M228.831,343.509v-5.467c0-.521-.174-.869-.743-.869-.553,0-.727.348-.727.869v5.467h-1.2V332.528h1.185V336.9h.064a1.39,1.39,0,0,1,1.279-.806c1.122,0,1.343.806,1.343,1.77v5.64Z" transform="translate(-226.161 -332.528)" fill="#fff"/>
    </g>
    <g id="Group_405" data-name="Group 405" transform="translate(53.794 55.929)">
      <path id="Path_489" data-name="Path 489" d="M239.292,347.752v-.537h-.063a1.257,1.257,0,0,1-1.154.632c-.916,0-1.264-.474-1.264-1.359V344.4c0-.885.348-1.359,1.264-1.359a1.273,1.273,0,0,1,1.154.632h.063v-1.517c0-.6-.332-.711-.869-.711a2.215,2.215,0,0,0-1.469.505h-.064v-1.264a4.693,4.693,0,0,1,1.8-.347c1.106,0,1.8.458,1.8,1.627v5.783Zm0-3.065c0-.41-.316-.584-.679-.584-.379,0-.663.174-.663.584v1.549c0,.411.284.584.663.584.363,0,.679-.174.679-.584Z" transform="translate(-236.811 -340.342)" fill="#fff"/>
    </g>
    <g id="Group_406" data-name="Group 406" transform="translate(58.612 55.929)">
      <path id="Path_490" data-name="Path 490" d="M252.521,347.752v-5.435c0-.489-.127-.837-.7-.837s-.7.348-.7.837v5.435h-1.169v-5.467c0-.506-.158-.806-.711-.806s-.7.3-.7.806v5.467h-1.2v-7.315h1.185v.743h.063a1.319,1.319,0,0,1,1.248-.838,1.082,1.082,0,0,1,1.2.932h.064a1.309,1.309,0,0,1,1.311-.932c1.106,0,1.3.774,1.3,1.722v5.688Z" transform="translate(-247.355 -340.342)" fill="#fff"/>
    </g>
    <g id="Group_407" data-name="Group 407" transform="translate(67.949 52.358)">
      <path id="Path_491" data-name="Path 491" d="M270.411,343.6h-.7a1.708,1.708,0,0,1-1.927-1.927v-9.148h1.264v9.085c0,.727.364.838,1.011.838s1.011-.111,1.011-.838v-9.085h1.264v9.148A1.708,1.708,0,0,1,270.411,343.6Z" transform="translate(-267.788 -332.528)" fill="#fff"/>
    </g>
    <g id="Group_408" data-name="Group 408" transform="translate(73.763 52.358)">
      <path id="Path_492" data-name="Path 492" d="M283.846,343.509l-1.659-4.345c-.158-.411-.379-1.153-.379-1.153h-.032v5.5h-1.264V332.528h1.264v4.835h.032s.269-.822.411-1.2l1.39-3.634h1.311l-1.991,5.04,2.339,5.941Z" transform="translate(-280.512 -332.528)" fill="#fff"/>
    </g>
    <g id="Group_410" data-name="Group 410" transform="translate(0.17 32.752)">
      <path id="Path_493" data-name="Path 493" d="M233.334,313.989c.573,0,.9-.243.9-.816v-2.362c0-.573-.33-.816-.9-.816s-.9.243-.9.816v2.344C232.431,313.746,232.761,313.989,233.334,313.989Z" transform="translate(-180.808 -300.686)" fill="#fff"/>
      <g id="Group_409" data-name="Group 409">
        <path id="Path_494" data-name="Path 494" d="M190.433,311.972c-.382.122-.9.313-.9.781v1.719c0,.5.4.59.9.59.521,0,.92-.087.92-.59v-1.719C191.354,312.285,190.833,312.094,190.433,311.972Z" transform="translate(-157.511 -301.759)" fill="#fff"/>
        <path id="Path_495" data-name="Path 495" d="M215.877,304.829l-.66,3.368h1.372l-.642-3.368Z" transform="translate(-171.46 -297.881)" fill="#fff"/>
        <path id="Path_496" data-name="Path 496" d="M157.725,309.647h1.893v-3.906h-.069Z" transform="translate(-140.239 -298.376)" fill="#fff"/>
        <path id="Path_497" data-name="Path 497" d="M190.433,301.3c-.5,0-.9.069-.9.59v1.3c0,.469.52.625.9.764.4-.139.92-.278.92-.764v-1.3C191.354,301.365,190.954,301.3,190.433,301.3Z" transform="translate(-157.511 -295.962)" fill="#fff"/>
        <path id="Path_498" data-name="Path 498" d="M203.79,289.623H119.459v17.955h49.262V296.936h2.361v.9h.069a2.15,2.15,0,0,1,1.927-1.007c1.493,0,2.083.729,2.083,2.187v3.854c0,1.441-.59,2.17-2.083,2.17a2.2,2.2,0,0,1-1.927-.989h-.069v3.524h31.524a11.912,11.912,0,0,1,1.184-17.955Zm-61.81,13.494h-.851v1.823H138.7v-1.823h-4.114v-2.222l3.646-7.969h2.9v8h.851Zm6.181-2.031h-5.625v-2.153h5.625Zm7.484-4.2c0,1.007-.677,1.476-1.545,1.736v.07a1.828,1.828,0,0,1,1.545,1.805v2.517c0,1.736-1.528,2.031-3.264,2.031-1.719,0-3.247-.3-3.247-2.031V300.5a1.872,1.872,0,0,1,1.563-1.805v-.07c-.92-.278-1.563-.694-1.563-1.736v-2.049c0-1.719,1.528-2.032,3.247-2.032,1.736,0,3.264.313,3.264,2.032Zm9.689,8.056-.521-2.622h-1.84l-.521,2.622h-2.344l2.518-12.014h2.726l2.5,12.014Zm15.367-5.59h-.069a1.7,1.7,0,0,0-1.076-.347c-.539,0-.851.226-.851.781v5.156H176.4v-8h2.17v.66h.069a1.36,1.36,0,0,1,1.267-.764,2.192,2.192,0,0,1,.8.139Zm3.126,5.59H181.6v-8h2.222Zm-1.093-9.045a1.363,1.363,0,1,1,1.354-1.354A1.334,1.334,0,0,1,182.734,295.894Zm4.723,9.045h-2.135V292.925h2.135Z" transform="translate(-119.459 -289.623)" fill="#fff"/>
      </g>
    </g>
    <g id="Group_411" data-name="Group 411" transform="translate(81.763 32.758)">
      <path id="Path_499" data-name="Path 499" d="M317.856,320.216h-15.5c-2.348,0-4.332-.859-4.332-3.608,0-2.062.526-2.792,3.967-6.4l5.87-6.185c1.862-1.976,3.279-3.651,3.279-5.455a3.264,3.264,0,0,0-3.4-3.006,3.231,3.231,0,0,0-3.4,3.178c0,1.933,1.012,3.565,2.388,3.866l-4.129,4.381c-2.712-1.589-4.089-4.853-4.089-8.075a9.23,9.23,0,1,1,18.46,0c0,4.124-1.619,6.185-4.372,8.891l-6.558,6.486h11.821Z" transform="translate(-298.019 -289.635)" fill="#fff"/>
      <path id="Path_500" data-name="Path 500" d="M343.912,299.6c0-5.584,3.724-9.964,9.837-9.964s9.837,4.381,9.837,9.964v11.168c0,5.583-3.725,9.964-9.837,9.964s-9.837-4.381-9.837-9.964Zm13.683,0c0-2.4-1.133-3.951-3.846-3.951s-3.846,1.546-3.846,3.951v11.168c0,2.4,1.134,3.951,3.846,3.951s3.846-1.546,3.846-3.951Z" transform="translate(-322.941 -289.635)" fill="#fff"/>
      <path id="Path_501" data-name="Path 501" d="M408.4,320.216H392.9c-2.348,0-4.332-.859-4.332-3.608,0-2.062.526-2.792,3.968-6.4l5.87-6.185c1.862-1.976,3.279-3.651,3.279-5.455a3.264,3.264,0,0,0-3.4-3.006,3.231,3.231,0,0,0-3.4,3.178c0,1.933,1.012,3.565,2.389,3.866l-4.13,4.381c-2.712-1.589-4.088-4.853-4.088-8.075a9.23,9.23,0,1,1,18.46,0c0,4.124-1.619,6.185-4.372,8.891l-6.559,6.486H408.4Z" transform="translate(-347.19 -289.635)" fill="#fff"/>
      <path id="Path_502" data-name="Path 502" d="M453.675,320.216h-15.5c-2.348,0-4.331-.859-4.331-3.608,0-2.062.526-2.792,3.967-6.4l5.87-6.185c1.862-1.976,3.279-3.651,3.279-5.455a3.417,3.417,0,0,0-6.8.172c0,1.933,1.012,3.565,2.389,3.866l-4.13,4.381c-2.712-1.589-4.089-4.853-4.089-8.075a9.23,9.23,0,1,1,18.461,0c0,4.124-1.619,6.185-4.373,8.891l-6.558,6.486h11.821Z" transform="translate(-371.775 -289.635)" fill="#fff"/>
    </g>
  </g>
  <g id="Group_413" data-name="Group 413">
    <path id="Path_433" data-name="Path 433" d="M126.21,161.39l-2.735,13.339h-1.686l-2.717-13.339H121.1l1.518,9.311h.037l1.536-9.311Z" transform="translate(-119.072 -161.278)" fill="#fff"/>
    <path id="Path_434" data-name="Path 434" d="M136.948,163.3V161.39h1.911V163.3Zm0,11.428v-9.5h1.911v9.5Z" transform="translate(-128.779 -161.278)" fill="#fff"/>
    <path id="Path_435" data-name="Path 435" d="M147.639,172.321a.952.952,0,0,0-.309-.731,1.007,1.007,0,0,0-.665-.244.854.854,0,0,0-.693.291,1,1,0,0,0-.244.665,1.1,1.1,0,0,0,.131.515,1.218,1.218,0,0,0,.674.459l1.124.449a2.731,2.731,0,0,1,1.47,1.124,3.109,3.109,0,0,1,.4,1.555,2.86,2.86,0,0,1-.216,1.115,2.956,2.956,0,0,1-.59.908,2.691,2.691,0,0,1-.9.618,2.861,2.861,0,0,1-1.143.225,2.756,2.756,0,0,1-1.948-.731,2.678,2.678,0,0,1-.637-.89,3.172,3.172,0,0,1-.263-1.246h1.8a1.828,1.828,0,0,0,.272.73.828.828,0,0,0,.759.338,1.132,1.132,0,0,0,.74-.272.931.931,0,0,0,.328-.759,1.11,1.11,0,0,0-.206-.674,1.624,1.624,0,0,0-.75-.487l-.918-.338a3.12,3.12,0,0,1-1.415-1,2.565,2.565,0,0,1-.515-1.62,2.757,2.757,0,0,1,.225-1.115,2.716,2.716,0,0,1,.618-.89,2.527,2.527,0,0,1,.88-.571,2.974,2.974,0,0,1,1.087-.2,2.779,2.779,0,0,1,1.077.207,2.468,2.468,0,0,1,.853.581,2.787,2.787,0,0,1,.562.89,2.932,2.932,0,0,1,.206,1.1Z" transform="translate(-132.519 -165.708)" fill="#fff"/>
    <path id="Path_436" data-name="Path 436" d="M159.005,163.3V161.39h1.911V163.3Zm0,11.428v-9.5h1.911v9.5Z" transform="translate(-140.757 -161.278)" fill="#fff"/>
    <path id="Path_437" data-name="Path 437" d="M165.5,166.365V163.48h1.911v2.885h1.181v1.5h-1.181v5.265a1.648,1.648,0,0,0,.066.525.518.518,0,0,0,.216.281.8.8,0,0,0,.365.112q.215.019.534.019v1.8H167.8a2.572,2.572,0,0,1-1.1-.207,1.964,1.964,0,0,1-.7-.525,2.049,2.049,0,0,1-.384-.721,2.676,2.676,0,0,1-.122-.777v-5.77h-.955v-1.5Z" transform="translate(-143.763 -162.413)" fill="#fff"/>
    <path id="Path_438" data-name="Path 438" d="M188.334,169.794v9.5h-1.911v-.918h-.037a2.716,2.716,0,0,1-.722.74,1.857,1.857,0,0,1-1.077.291,2.194,2.194,0,0,1-.712-.122,1.647,1.647,0,0,1-.637-.4,2.028,2.028,0,0,1-.45-.722,3.023,3.023,0,0,1-.169-1.077v-7.288h1.911v6.576a1.27,1.27,0,0,0,.244.824.842.842,0,0,0,.693.3.807.807,0,0,0,.749-.337,1.889,1.889,0,0,0,.206-.975v-6.389Z" transform="translate(-153.581 -165.841)" fill="#fff"/>
    <path id="Path_439" data-name="Path 439" d="M201.634,172.321a.952.952,0,0,0-.309-.731,1.007,1.007,0,0,0-.665-.244.854.854,0,0,0-.693.291,1,1,0,0,0-.244.665,1.1,1.1,0,0,0,.131.515,1.218,1.218,0,0,0,.674.459l1.124.449a2.731,2.731,0,0,1,1.47,1.124,3.109,3.109,0,0,1,.4,1.555,2.86,2.86,0,0,1-.216,1.115,2.955,2.955,0,0,1-.59.908,2.686,2.686,0,0,1-.9.618,2.861,2.861,0,0,1-1.143.225,2.756,2.756,0,0,1-1.948-.731,2.684,2.684,0,0,1-.637-.89,3.164,3.164,0,0,1-.262-1.246h1.8a1.821,1.821,0,0,0,.271.73.829.829,0,0,0,.759.338,1.13,1.13,0,0,0,.74-.272.931.931,0,0,0,.328-.759,1.11,1.11,0,0,0-.206-.674,1.625,1.625,0,0,0-.749-.487l-.918-.338a3.122,3.122,0,0,1-1.415-1,2.565,2.565,0,0,1-.515-1.62,2.757,2.757,0,0,1,.225-1.115,2.716,2.716,0,0,1,.618-.89,2.525,2.525,0,0,1,.881-.571,2.97,2.97,0,0,1,1.087-.2,2.778,2.778,0,0,1,1.077.207,2.468,2.468,0,0,1,.853.581,2.787,2.787,0,0,1,.562.89,2.932,2.932,0,0,1,.206,1.1Z" transform="translate(-161.842 -165.708)" fill="#fff"/>
    <path id="Path_440" data-name="Path 440" d="M220.257,172.846a7.005,7.005,0,0,1,.075-1.068,2.538,2.538,0,0,1,1.246-1.855,3.295,3.295,0,0,1,3.054,0,2.537,2.537,0,0,1,1.246,1.855,7.064,7.064,0,0,1,.075,1.068v3.128a7.07,7.07,0,0,1-.075,1.068,2.538,2.538,0,0,1-1.246,1.854,3.295,3.295,0,0,1-3.054,0,2.539,2.539,0,0,1-1.246-1.854,7.011,7.011,0,0,1-.075-1.068Zm1.911,3.429a1.159,1.159,0,0,0,.253.815,1,1,0,0,0,1.368,0,1.157,1.157,0,0,0,.253-.815v-3.729a1.159,1.159,0,0,0-.253-.815,1,1,0,0,0-1.368,0,1.161,1.161,0,0,0-.253.815Z" transform="translate(-174.02 -165.708)" fill="#fff"/>
    <path id="Path_441" data-name="Path 441" d="M235.8,179.16v-9.5h1.911v.918h.037a2.711,2.711,0,0,1,.721-.74,1.861,1.861,0,0,1,1.077-.291,2.2,2.2,0,0,1,.712.122,1.651,1.651,0,0,1,.637.4,2.026,2.026,0,0,1,.45.721,3.025,3.025,0,0,1,.169,1.077v7.288H239.6v-6.576a1.274,1.274,0,0,0-.244-.824.843.843,0,0,0-.693-.3.806.806,0,0,0-.749.338,1.878,1.878,0,0,0-.206.974v6.389Z" transform="translate(-182.458 -165.708)" fill="#fff"/>
    <path id="Path_442" data-name="Path 442" d="M265.353,165.1h-1.911v-.43a2.044,2.044,0,0,0-.309-1.134,1.144,1.144,0,0,0-1.04-.478,1.2,1.2,0,0,0-.637.149,1.263,1.263,0,0,0-.393.375,1.58,1.58,0,0,0-.206.552,3.607,3.607,0,0,0-.056.647,6.334,6.334,0,0,0,.028.656,1.245,1.245,0,0,0,.14.468,1.038,1.038,0,0,0,.328.356,2.961,2.961,0,0,0,.59.3l1.461.581a3.624,3.624,0,0,1,1.03.571,2.476,2.476,0,0,1,.618.759,3.56,3.56,0,0,1,.281,1.021,10.13,10.13,0,0,1,.075,1.3,6.865,6.865,0,0,1-.169,1.565,3.306,3.306,0,0,1-.543,1.227,2.693,2.693,0,0,1-1.03.824,3.638,3.638,0,0,1-1.555.3,3.4,3.4,0,0,1-1.293-.244,3.063,3.063,0,0,1-1.03-.674,3.264,3.264,0,0,1-.684-1,3.036,3.036,0,0,1-.253-1.246v-.712h1.911v.6a1.564,1.564,0,0,0,.309.946,1.2,1.2,0,0,0,1.04.422,1.675,1.675,0,0,0,.759-.141,1.009,1.009,0,0,0,.422-.4,1.486,1.486,0,0,0,.178-.628q.028-.365.028-.815a8.03,8.03,0,0,0-.037-.861,1.484,1.484,0,0,0-.15-.543,1.061,1.061,0,0,0-.347-.338,4.483,4.483,0,0,0-.571-.281l-1.368-.562a3.032,3.032,0,0,1-1.658-1.34,4.613,4.613,0,0,1-.421-2.089,4.843,4.843,0,0,1,.206-1.424,3.242,3.242,0,0,1,.618-1.162,2.836,2.836,0,0,1,1-.777,3.34,3.34,0,0,1,1.452-.29,3.166,3.166,0,0,1,1.3.262,3.365,3.365,0,0,1,1.021.693,2.9,2.9,0,0,1,.862,2.061Z" transform="translate(-194.948 -161.144)" fill="#fff"/>
    <path id="Path_443" data-name="Path 443" d="M274.88,166.365V163.48h1.911v2.885h1.18v1.5h-1.18v5.265a1.648,1.648,0,0,0,.066.525.519.519,0,0,0,.215.281.8.8,0,0,0,.366.112q.215.019.534.019v1.8h-.786a2.572,2.572,0,0,1-1.1-.207,1.964,1.964,0,0,1-.7-.525,2.042,2.042,0,0,1-.384-.721,2.675,2.675,0,0,1-.122-.777v-5.77h-.956v-1.5Z" transform="translate(-203.164 -162.413)" fill="#fff"/>
    <path id="Path_444" data-name="Path 444" d="M287.616,179.16v-.974h-.037a3.521,3.521,0,0,1-.759.805,1.8,1.8,0,0,1-1.078.281,2.394,2.394,0,0,1-.684-.1,1.772,1.772,0,0,1-.665-.384,1.83,1.83,0,0,1-.515-.759,3.53,3.53,0,0,1-.2-1.284,6.787,6.787,0,0,1,.131-1.414,2.262,2.262,0,0,1,.487-1.021,2.041,2.041,0,0,1,.918-.59,4.69,4.69,0,0,1,1.48-.2h.206a1.03,1.03,0,0,1,.206.019,1.178,1.178,0,0,0,.225.019,2.22,2.22,0,0,1,.281.019v-.993a1.454,1.454,0,0,0-.206-.805.824.824,0,0,0-.749-.319,1.079,1.079,0,0,0-.684.244,1.155,1.155,0,0,0-.4.712h-1.855a3.053,3.053,0,0,1,.862-2.061,2.711,2.711,0,0,1,.9-.59,3.083,3.083,0,0,1,1.18-.216,3.332,3.332,0,0,1,1.124.187,2.577,2.577,0,0,1,.918.562,2.748,2.748,0,0,1,.6.937,3.517,3.517,0,0,1,.225,1.311v6.614Zm0-4.084a3.137,3.137,0,0,0-.525-.056,1.876,1.876,0,0,0-1.058.29,1.174,1.174,0,0,0-.44,1.059,1.39,1.39,0,0,0,.262.88.873.873,0,0,0,.731.338.943.943,0,0,0,.759-.319,1.344,1.344,0,0,0,.271-.9Z" transform="translate(-208.463 -165.708)" fill="#fff"/>
    <path id="Path_445" data-name="Path 445" d="M299.549,179.16v-9.5h1.911v.918h.037a2.705,2.705,0,0,1,.722-.74,1.859,1.859,0,0,1,1.077-.291,2.2,2.2,0,0,1,.712.122,1.653,1.653,0,0,1,.637.4,2.033,2.033,0,0,1,.45.721,3.036,3.036,0,0,1,.168,1.077v7.288h-1.911v-6.576a1.272,1.272,0,0,0-.244-.824.843.843,0,0,0-.693-.3.8.8,0,0,0-.749.338,1.877,1.877,0,0,0-.207.974v6.389Z" transform="translate(-217.079 -165.708)" fill="#fff"/>
    <path id="Path_446" data-name="Path 446" d="M319.3,174.729v-.862c-.125.138-.244.265-.356.384a1.981,1.981,0,0,1-.374.309,1.77,1.77,0,0,1-.469.207,2.288,2.288,0,0,1-.618.075,1.715,1.715,0,0,1-1.668-.9,2.543,2.543,0,0,1-.244-.786,8.33,8.33,0,0,1-.075-1.255v-3.616a14.65,14.65,0,0,1,.056-1.518,1.809,1.809,0,0,1,.881-1.405,1.9,1.9,0,0,1,1.068-.244,1.975,1.975,0,0,1,1,.253,2.315,2.315,0,0,1,.759.722h.037v-4.7h1.911v13.339Zm-1.892-3.092a1.734,1.734,0,0,0,.225.937.78.78,0,0,0,.711.356.844.844,0,0,0,.693-.328,1.322,1.322,0,0,0,.262-.852v-3.691a1.041,1.041,0,0,0-.271-.74.9.9,0,0,0-.684-.291.783.783,0,0,0-.74.338,1.532,1.532,0,0,0-.2.786Z" transform="translate(-225.74 -161.278)" fill="#fff"/>
    <path id="Path_447" data-name="Path 447" d="M339.153,174.729V161.39h1.836l2.885,8.037h.037V161.39h1.911v13.339h-1.8l-2.922-8.019h-.037v8.019Z" transform="translate(-238.586 -161.278)" fill="#fff"/>
    <path id="Path_448" data-name="Path 448" d="M356.906,172.846a7.064,7.064,0,0,1,.075-1.068,2.541,2.541,0,0,1,1.246-1.855,3.295,3.295,0,0,1,3.054,0,2.538,2.538,0,0,1,1.246,1.855,7.124,7.124,0,0,1,.075,1.068v3.128a7.13,7.13,0,0,1-.075,1.068,2.538,2.538,0,0,1-1.246,1.854,3.295,3.295,0,0,1-3.054,0,2.541,2.541,0,0,1-1.246-1.854,7.07,7.07,0,0,1-.075-1.068Zm1.911,3.429a1.155,1.155,0,0,0,.253.815,1,1,0,0,0,1.367,0,1.157,1.157,0,0,0,.253-.815v-3.729a1.159,1.159,0,0,0-.253-.815,1,1,0,0,0-1.367,0,1.157,1.157,0,0,0-.253.815Z" transform="translate(-248.227 -165.708)" fill="#fff"/>
    <path id="Path_449" data-name="Path 449" d="M372.445,188.31V186.4h1.911v1.911Z" transform="translate(-256.665 -174.859)" fill="#fff"/>
    <path id="Path_450" data-name="Path 450" d="M390.058,174.729V163.413l-1.911,1.406v-2.024l1.911-1.4h1.911v13.339Z" transform="translate(-265.192 -161.278)" fill="#fff"/>
    <path id="Path_451" data-name="Path 451" d="M403.051,174.729l3.354-11.541h-2.1v1.536H402.62V161.39h5.7V163.3l-3.242,11.428Z" transform="translate(-273.051 -161.278)" fill="#fff"/>
    <path id="Path_452" data-name="Path 452" d="M418.281,179.044v-1.911h5.639v1.911Z" transform="translate(-281.556 -169.827)" fill="#fff"/>
    <path id="Path_453" data-name="Path 453" d="M438.823,161.39l-2.173,5.6.037.037a.76.76,0,0,1,.29-.122,2.307,2.307,0,0,1,.515-.047,1.876,1.876,0,0,1,.937.244,1.9,1.9,0,0,1,.674.618,2.151,2.151,0,0,1,.206.412,3.245,3.245,0,0,1,.131.543q.037.338.056.853t.019,1.3q0,.656-.019,1.077t-.056.7a2.6,2.6,0,0,1-.141.506,3.592,3.592,0,0,1-.215.431,2.587,2.587,0,0,1-1,.955,2.935,2.935,0,0,1-1.414.338,2.821,2.821,0,0,1-1.405-.347,2.723,2.723,0,0,1-.993-.946,2.493,2.493,0,0,1-.234-.431,2.011,2.011,0,0,1-.122-.506,4.791,4.791,0,0,1-.075-.7q-.018-.422-.019-1.077,0-.619.019-1.021t.056-.7a3.016,3.016,0,0,1,.112-.515q.075-.234.169-.5l2.51-6.707ZM437.6,169.5a.906.906,0,0,0-.281-.694.951.951,0,0,0-1.311,0,.905.905,0,0,0-.281.694v2.473a.9.9,0,0,0,.281.693.95.95,0,0,0,1.311,0,.9.9,0,0,0,.281-.693Z" transform="translate(-289.994 -161.278)" fill="#fff"/>
    <path id="Path_454" data-name="Path 454" d="M449.072,164.01a2.915,2.915,0,0,1,.234-1.2,2.816,2.816,0,0,1,.628-.9,2.692,2.692,0,0,1,.908-.572,3.051,3.051,0,0,1,2.155,0,2.691,2.691,0,0,1,.908.572,2.807,2.807,0,0,1,.628.9,2.922,2.922,0,0,1,.234,1.2v7.831a2.918,2.918,0,0,1-.234,1.2,2.8,2.8,0,0,1-.628.9,2.683,2.683,0,0,1-.908.572,3.044,3.044,0,0,1-2.155,0,2.684,2.684,0,0,1-.908-.572,2.806,2.806,0,0,1-.628-.9,2.911,2.911,0,0,1-.234-1.2Zm1.911,7.831a.942.942,0,0,0,.262.684.972.972,0,0,0,1.348,0,.944.944,0,0,0,.262-.684V164.01a.944.944,0,0,0-.262-.684.973.973,0,0,0-1.348,0,.942.942,0,0,0-.262.684Z" transform="translate(-298.277 -161.144)" fill="#fff"/>
    <path id="Path_455" data-name="Path 455" d="M464.754,174.729l3.353-11.541h-2.1v1.536h-1.687V161.39h5.7V163.3l-3.242,11.428Z" transform="translate(-306.559 -161.278)" fill="#fff"/>
  </g>
  <g id="Group_414" data-name="Group 414" transform="translate(0.213 18.593)">
    <line id="Line_161" data-name="Line 161" x1="163.787" transform="translate(0 0.228)" fill="#fff"/>
    <rect id="Rectangle_37" data-name="Rectangle 37" width="163.787" height="0.457" transform="translate(0)" fill="#fff"/>
  </g>
</svg>
