<svg xmlns="http://www.w3.org/2000/svg" width="164" height="51.491" viewBox="0 0 164 51.491"><defs><style>.a{fill:#fff;}.b{fill:#65c2c4;}</style></defs><g transform="translate(0)"><g transform="translate(61.147 7.989)"><path class="a" d="M175.311,66.784h0c-5.049-1.233-5.049-1.586-5.049-4.968,0-2.415.185-3.4,4.811-3.4a52.3,52.3,0,0,1,8.963.93l.782.153.524-6.039-.575-.159a37.492,37.492,0,0,0-9.492-1.171c-4.481,0-7.453.732-9.354,2.3-1.833,1.515-2.686,3.817-2.686,7.242,0,7.074.927,9.1,9.443,11.211,6.331,1.551,6.331,1.736,6.331,4.832,0,2.836-.243,3.733-5.351,3.733a36.472,36.472,0,0,1-9.173-1.321l-.772-.22-.969,5.818.545.21a34.1,34.1,0,0,0,10.7,1.8c10.07,0,12.04-3.748,12.04-10.22C186.032,70.443,184.729,69.139,175.311,66.784Z" transform="translate(-162.742 -52.135)"/><path class="a" d="M276.686,61.209c0-6.021-2.645-9.075-7.862-9.075-3.872,0-9.088,1.585-12.68,3.186l-.975-2.512h-5.4l0,34.261h7.094V61.985c3.3-1.633,7.99-3.026,10.271-3.027,1.787,0,2.452.628,2.452,2.318V87.069h7.094Z" transform="translate(-207.911 -52.134)"/><path class="a" d="M332.162,52.134c-8.937,0-14.063,4.758-14.063,13.052v9.5a13,13,0,0,0,3.284,9.243c2.432,2.528,6.058,3.809,10.778,3.809h0c4.721,0,8.347-1.281,10.778-3.809a13,13,0,0,0,3.283-9.243v-9.5C346.224,56.891,341.1,52.134,332.162,52.134Zm6.969,22.759c0,4.371-2.279,6.5-6.968,6.5s-6.969-2.126-6.969-6.5v-9.91c0-4.371,2.279-6.5,6.968-6.5s6.968,2.126,6.968,6.5Z" transform="translate(-243.372 -52.134)"/><path class="a" d="M229.087,53.535h-7.094v6.836h5.088l-5.088,2.939V87.8h7.094Z" transform="translate(-193.493 -52.861)"/></g><g transform="translate(0 0)"><g transform="translate(0 0)"><path class="b" d="M107.573,54.025V79.768l-5.964,3.446L88.344,75.55l5.964-3.441V46.366Z" transform="translate(-62.982 -41.151)"/><path class="b" d="M71.181,105.324l-13.265,7.664-22.3-12.874V93.228l13.27-7.659v6.886Z" transform="translate(-35.618 -61.497)"/><path class="b" d="M63.88,38.97V54.288l-5.964-3.445-22.3,12.878V48.4l22.3-12.874Z" transform="translate(-35.618 -35.525)"/></g></g></g></svg>